<svg width="85" height="19" fill="none" xmlns="http://www.w3.org/2000/svg"><path d="M8.83 2.781c.307-.904 1.585-.904 1.893 0l.983 2.89a1 1 0 00.947.677h3.08c.98 0 1.375 1.264.57 1.822l-2.41 1.672a1 1 0 00-.378 1.144l.94 2.76c.31.913-.724 1.694-1.517 1.144l-2.592-1.798a1 1 0 00-1.14 0L6.614 14.89c-.793.55-1.828-.23-1.517-1.144l.94-2.76a1 1 0 00-.377-1.144L3.25 8.17c-.806-.558-.41-1.822.569-1.822h3.08a1 1 0 00.947-.677l.983-2.89zm16.182.146c.3-.921 1.603-.921 1.902 0l.887 2.73a1 1 0 00.951.691h2.871c.969 0 1.372 1.24.588 1.81l-2.323 1.687a1 1 0 00-.363 1.118l.887 2.73c.3.922-.755 1.688-1.539 1.118l-2.322-1.687a1 1 0 00-1.176 0l-2.322 1.687c-.784.57-1.838-.196-1.539-1.118l.887-2.73a1 1 0 00-.363-1.118l-2.323-1.688c-.783-.569-.38-1.809.588-1.809h2.87a1 1 0 00.952-.69l.887-2.73zm16.191-.146c.308-.904 1.586-.904 1.894 0l.983 2.89a1 1 0 00.947.677h3.08c.98 0 1.375 1.264.57 1.822l-2.41 1.672a1 1 0 00-.377 1.144l.939 2.76c.31.913-.724 1.694-1.517 1.144l-2.592-1.798a1 1 0 00-1.14 0l-2.592 1.798c-.793.55-1.828-.23-1.517-1.144l.94-2.76a1 1 0 00-.377-1.144l-2.41-1.672c-.806-.558-.41-1.822.57-1.822h3.08a1 1 0 00.946-.677l.983-2.89zm16.183.146c.3-.921 1.603-.921 1.902 0l.887 2.73a1 1 0 00.951.691h2.871c.969 0 1.372 1.24.588 1.81l-2.323 1.687a1 1 0 00-.363 1.118l.887 2.73c.3.922-.755 1.688-1.539 1.118l-2.322-1.687a1 1 0 00-1.176 0l-2.322 1.687c-.784.57-1.838-.196-1.539-1.118l.887-2.73a1 1 0 00-.363-1.118l-2.323-1.688c-.783-.569-.38-1.809.588-1.809h2.87a1 1 0 00.952-.69l.887-2.73zm16.192-.146c.307-.904 1.585-.904 1.893 0l.983 2.89a1 1 0 00.947.677h3.08c.98 0 1.375 1.264.57 1.822l-2.41 1.672a1 1 0 00-.377 1.144l.94 2.76c.31.913-.725 1.694-1.517 1.144l-2.593-1.798a1 1 0 00-1.14 0l-2.592 1.798c-.793.55-1.828-.23-1.517-1.144l.94-2.76a1 1 0 00-.377-1.144l-2.41-1.672c-.806-.558-.41-1.822.57-1.822h3.08a1 1 0 00.946-.677l.984-2.89z" fill="#FFA858"/></svg>